<?xml version="1.0" encoding="UTF-8"?>
<svg width="24px" height="24px" viewBox="0 0 24 24" version="1.1" xmlns="http://www.w3.org/2000/svg" xmlns:xlink="http://www.w3.org/1999/xlink">
    <title>icon/设备/手机</title>
    <g id="UIkit" stroke="none" stroke-width="1" fill="none" fill-rule="evenodd">
        <g id="Apple-TV" transform="translate(-186.000000, -609.000000)">
            <g id="icon" transform="translate(50.000000, 301.000000)" fill="#D3D4D7" fill-rule="nonzero">
                <g id="组件/状态/说明圆" transform="translate(136.000000, 308.000000)">
                    <path d="M12,2 C17.5228475,2 22,6.4771525 22,12 C22,17.5228475 17.5228475,22 12,22 C6.4771525,22 2,17.5228475 2,12 C2,6.4771525 6.4771525,2 12,2 Z M12,9.6 C11.6203042,9.6 11.306509,9.88215388 11.2568466,10.2482294 L11.25,10.35 L11.25,16.65 L11.2568466,16.7517706 C11.306509,17.1178461 11.6203042,17.4 12,17.4 C12.3796958,17.4 12.693491,17.1178461 12.7431534,16.7517706 L12.75,16.65 L12.75,10.35 L12.7431534,10.2482294 C12.693491,9.88215388 12.3796958,9.6 12,9.6 Z M12,6 C11.4477153,6 11,6.44771525 11,7 C11,7.55228475 11.4477153,8 12,8 C12.5522847,8 13,7.55228475 13,7 C13,6.44771525 12.5522847,6 12,6 Z" id="形状"></path>
                </g>
            </g>
            <g id="切图" transform="translate(50.000000, 301.000000)">
                <g id="编组-2备份-7" transform="translate(0.000000, 308.000000)"></g>
            </g>
        </g>
    </g>
</svg>