<?xml version="1.0" encoding="UTF-8"?> <svg width="24px" height="24px" viewBox="0 0 24 24" version="1.1" xmlns="http://www.w3.org/2000/svg" xmlns:xlink="http://www.w3.org/1999/xlink"><g id="UIkit" stroke="none" stroke-width="1" fill="none" fill-rule="evenodd"><g id="Apple-TV" transform="translate(-594.000000, -521.000000)"><g id="icon" transform="translate(50.000000, 301.000000)" fill="#333333" fill-rule="nonzero"><g id="icon///" transform="translate(544.000000, 220.000000)"><path d="M12,2.75 C12.3796958,2.75 12.693491,3.03215388 12.7431534,3.39822944 L12.75,3.5 L12.75,11.25 L20.5,11.25 C20.9142136,11.25 21.25,11.5857864 21.25,12 C21.25,12.3796958 20.9678461,12.693491 20.6017706,12.7431534 L20.5,12.75 L12.75,12.75 L12.75,20.5 C12.75,20.9142136 12.4142136,21.25 12,21.25 C11.6203042,21.25 11.306509,20.9678461 11.2568466,20.6017706 L11.25,20.5 L11.25,12.75 L3.5,12.75 C3.08578644,12.75 2.75,12.4142136 2.75,12 C2.75,11.6203042 3.03215388,11.306509 3.39822944,11.2568466 L3.5,11.25 L11.25,11.25 L11.25,3.5 C11.25,3.08578644 11.5857864,2.75 12,2.75 Z" id=""></path></g></g><g id="" transform="translate(50.000000, 301.000000)"><g id="-2-5" transform="translate(0.000000, 220.000000)"></g></g></g></g></svg>