<?xml version="1.0" encoding="UTF-8"?>
<svg width="24px" height="24px" viewBox="0 0 24 24" version="1.1" xmlns="http://www.w3.org/2000/svg" xmlns:xlink="http://www.w3.org/1999/xlink">
    <title>icon/设备/手机备份 54</title>
    <g id="UIkit" stroke="none" stroke-width="1" fill="none" fill-rule="evenodd">
        <g id="Apple-TV" transform="translate(-730.000000, -521.000000)">
            <g id="icon" transform="translate(50.000000, 301.000000)" fill="#333333" fill-rule="nonzero">
                <g id="icon/交易备份-42" transform="translate(680.000000, 220.000000)">
                    <path d="M19.1917784,4.4528471 C19.4664913,4.71039045 19.5041186,5.12605708 19.2958438,5.42653984 L19.2259755,5.51295585 L13.1029976,12.0419976 L19.6724657,18.6118055 C19.9653589,18.9046988 19.9653589,19.3795725 19.6724657,19.6724657 C19.4061991,19.9387323 18.9895355,19.9629383 18.695924,19.7450839 L18.6118055,19.6724657 L12.0769976,13.1379976 L5.5471529,20.1036999 C5.26385521,20.4058841 4.78922836,20.4211947 4.48704415,20.137897 C4.21233124,19.8803536 4.174704,19.464687 4.38297878,19.1642042 L4.4528471,19.0777882 L11.0149976,12.0759976 L4.46966991,5.53033009 C4.1767767,5.23743687 4.1767767,4.76256313 4.46966991,4.46966991 C4.73593648,4.20340335 5.15260016,4.1791973 5.44621165,4.39705176 L5.53033009,4.46966991 L12.0419976,10.9809976 L18.1316697,4.48704415 C18.4149674,4.18485995 18.8895942,4.16954941 19.1917784,4.4528471 Z" id="路径"></path>
                </g>
            </g>
            <g id="切图" transform="translate(50.000000, 301.000000)">
                <g id="编组-2备份-5" transform="translate(0.000000, 220.000000)"></g>
            </g>
        </g>
    </g>
</svg>