<?xml version="1.0" encoding="UTF-8"?>
<svg width="24px" height="24px" viewBox="0 0 24 24" version="1.1" xmlns="http://www.w3.org/2000/svg" xmlns:xlink="http://www.w3.org/1999/xlink">
    <title>icon/设备/手机</title>
    <g id="UIkit" stroke="none" stroke-width="1" fill="none" fill-rule="evenodd">
        <g id="Apple-TV" transform="translate(-50.000000, -609.000000)">
            <g id="icon" transform="translate(50.000000, 301.000000)" fill="#00AF92">
                <g id="组件/状态/正确圆" transform="translate(0.000000, 308.000000)">
                    <path d="M12,2 C17.5228475,2 22,6.4771525 22,12 C22,17.5228475 17.5228475,22 12,22 C6.4771525,22 2,17.5228475 2,12 C2,6.4771525 6.4771525,2 12,2 Z M11.02,17.792 L11.0515196,17.7620736 L11.1310268,17.6611671 L17.1533191,7.23237903 C17.3604259,6.87365957 17.2375195,6.41496676 16.8788001,6.20785998 C16.5200806,6.0007532 16.0613878,6.12365957 15.854281,6.48237903 L15.854281,6.48237903 L10.3452497,16.0223436 L6.45506371,12.0863511 C6.16388978,11.7917486 5.68902418,11.7889693 5.39442171,12.0801432 C5.09981924,12.3713171 5.09703986,12.8461827 5.38821379,13.1407852 L5.38821379,13.1407852 L9.97037511,17.7769009 L10.0397947,17.8390424 L10.1288001,17.8992029 L10.199967,17.9354634 L10.2978071,17.9710155 L10.3301886,17.9794168 L10.4541828,17.9980669 L10.5759794,17.996261 L10.6741465,17.980085 L10.7721436,17.9500612 L10.8329595,17.9238202 L10.9339026,17.8642501 L10.9339026,17.8642501 L10.9485995,17.8537845 L10.953,17.849 L10.957,17.846 L10.9837628,17.8260519 L10.9837628,17.8260519 L10.995,17.815 L10.965,17.839 L11.02,17.792 Z" id="形状结合"></path>
                </g>
            </g>
            <g id="切图" transform="translate(50.000000, 301.000000)">
                <g id="编组-2备份-7" transform="translate(0.000000, 308.000000)"></g>
            </g>
        </g>
    </g>
</svg>