<?xml version="1.0" encoding="UTF-8"?>
<svg width="24px" height="24px" viewBox="0 0 24 24" version="1.1" xmlns="http://www.w3.org/2000/svg" xmlns:xlink="http://www.w3.org/1999/xlink">
    <title></title>
    <g id="UIKit" stroke="none" stroke-width="1" fill="none" fill-rule="evenodd">
        <g id="Apple-TV" transform="translate(-152.000000, -389.000000)">
            <g id="icon" transform="translate(49.000000, 301.000000)" fill="#333333" fill-rule="nonzero">
                <g id="" transform="translate(103.000000, 88.000000)">
                    <path d="M12.9218618,9.39513253 L13.0071804,9.46827975 L17.1623743,13.6017178 C17.4560353,13.8938412 17.4572818,14.3687133 17.1651583,14.6623743 C16.8995916,14.9293389 16.4829929,14.9546385 16.1888106,14.7375554 L16.1045018,14.6651583 L13.25,11.825 L13.25,20.4444444 C13.25,20.858658 12.9142136,21.1944444 12.5,21.1944444 C12.1203042,21.1944444 11.806509,20.9122906 11.7568466,20.546215 L11.75,20.4444444 L11.75,11.836 L9.04037755,14.6535266 C8.77925302,14.9248378 8.36312861,14.9570096 8.06540357,14.7448114 L7.97991145,14.6738156 C7.70860028,14.4126911 7.67642845,13.9965667 7.88862666,13.6988416 L7.95962245,13.6133495 L11.9378666,9.47991145 C12.2020439,9.20542842 12.6240969,9.17614568 12.9218618,9.39513253 Z M11.37384,3.25 C13.5761405,3.25 15.587082,4.31148827 16.750575,6.03292744 C16.8301426,6.14951475 16.9575882,6.22887119 17.1036688,6.2500886 C20.3284331,6.72396776 22.75,9.33971684 22.75,12.4589674 C22.75,15.8570398 21.0172248,18.6245307 17.6087259,18.7458522 L17.3753053,18.75 L17,18.75 C16.5857864,18.75 16.25,18.4142136 16.25,18 C16.25,17.6203042 16.5321539,17.306509 16.8982294,17.2568466 L17,17.25 L17.3753053,17.25 C20.0681773,17.25 21.25,15.1007493 21.25,12.4589674 C21.25,10.1067972 19.3948518,8.1028872 16.8868304,7.73433235 C16.327115,7.65304081 15.828213,7.34239005 15.5097129,6.87569069 C14.624078,5.56536513 13.0794056,4.75 11.37384,4.75 C9.036055,4.75 7.05149686,6.28305381 6.59926808,8.35923617 C6.45962359,9.00196442 6.01082743,9.53500596 5.39760592,9.77745994 C3.85763309,10.390907 2.84131099,11.6861218 2.75564636,13.119231 L2.74977158,13.3154587 L2.75416858,13.5028783 C2.84920327,15.4242122 4.57705087,17.0261991 6.77789361,17.2339157 L6.99951158,17.25 L8,17.25 C8.41421356,17.25 8.75,17.5857864 8.75,18 C8.75,18.3796958 8.46784612,18.693491 8.10177056,18.7431534 L8,18.75 L6.96169266,18.7490459 C3.96419648,18.5977039 1.52562101,16.486818 1.27112902,13.7792519 L1.25531278,13.5584389 L1.25,13.3339674 C1.25,11.1615777 2.68578763,9.24307931 4.84429065,8.38324385 C4.99184574,8.32490324 5.0995163,8.1970214 5.13354971,8.04037961 C5.73877768,5.26177731 8.34304964,3.25 11.37384,3.25 Z" id="形状结合"></path>
                </g>
            </g>
            <g transform="translate(50.000000, 301.000000)">
                <g transform="translate(0.000000, 88.000000)"></g>
            </g>
        </g>
    </g>
</svg>
