<?xml version="1.0" encoding="UTF-8"?>
<svg width="24px" height="24px" viewBox="0 0 24 24" version="1.1" xmlns="http://www.w3.org/2000/svg" xmlns:xlink="http://www.w3.org/1999/xlink">
    <title>icon/设备/手机备份 42</title>
    <g id="组件" stroke="none" stroke-width="1" fill="none" fill-rule="evenodd">
        <g id="Apple-TV" transform="translate(-322.000000, -521.000000)">
            <g id="icon" transform="translate(50.000000, 301.000000)" fill="#333333" fill-rule="nonzero">
                <g id="icon/通用/箭头下/单" transform="translate(272.000000, 220.000000)">
                    <path d="M11.5585613,16.2908793 C11.8197223,16.5417506 12.2171743,16.5669143 12.5056774,16.3663199 L12.5974735,16.2910937 L20.9324829,8.29109366 C21.2313201,8.00426761 21.2410571,7.52949371 20.9542311,7.23065648 C20.6934801,6.95898627 20.2774004,6.92624188 19.9793836,7.13803023 L19.8937939,7.20890832 L12.0785697,14.7105603 L4.26956869,7.20912266 C3.99800609,6.94825963 3.58094017,6.93242999 3.29176504,7.15613967 L3.20912262,7.23043325 C2.94825959,7.50199585 2.93242995,7.91906176 3.15613963,8.2082369 L3.23043321,8.29087932 L11.5585613,16.2908793 Z" id="路径"></path>
                </g>
            </g>
            <g id="切图" transform="translate(50.000000, 301.000000)">
                <g id="编组-2备份-5" transform="translate(0.000000, 220.000000)"></g>
            </g>
        </g>
    </g>
</svg>