<?xml version="1.0" encoding="UTF-8"?>
<svg width="24px" height="24px" viewBox="0 0 24 24" version="1.1" xmlns="http://www.w3.org/2000/svg" xmlns:xlink="http://www.w3.org/1999/xlink">
    <title>icon/设备/手机备份 41</title>
    <g id="UIkit" stroke="none" stroke-width="1" fill="none" fill-rule="evenodd">
        <g id="Apple-TV" transform="translate(-288.000000, -433.000000)">
            <g id="icon" transform="translate(50.000000, 301.000000)" fill="#333333" fill-rule="nonzero">
                <g id="编组" transform="translate(238.000000, 132.000000)">
                    <g id="编组" transform="translate(1.805556, 2.000000)">
                        <path d="M11.7944444,0.25 C13.4741519,0.25 14.8467905,1.5647177 14.939458,3.22125068 L14.9444444,3.4 L14.944,4 L19.2643052,4 C19.6706182,4 20,4.33578644 20,4.75 C20,5.12969577 19.7232278,5.44349096 19.3641346,5.49315338 L19.2643052,5.5 L17.1,5.5 L16.2530458,19.0623783 C16.2201061,19.5894132 15.7830565,20 15.2549932,20 L5.13389567,20 C4.60583238,20 4.16878277,19.5894132 4.13584309,19.0623783 L3.287,5.5 L0.735694823,5.5 C0.329381792,5.5 0,5.16421356 0,4.75 C0,4.37030423 0.2767722,4.05650904 0.635865393,4.00684662 L0.735694823,4 L5.444,4 L5.44444444,3.4 C5.44444444,1.72029259 6.75916214,0.347653948 8.41569512,0.254986488 L8.59444444,0.25 L11.7944444,0.25 Z M15.597,5.5 L4.79,5.5 L5.603,18.5 L14.784,18.5 L15.597,5.5 Z M8.69444444,7.82142857 C9.07414021,7.82142857 9.38793541,8.10358245 9.43759783,8.46965801 L9.44444444,8.57142857 L9.44444444,15.4285714 C9.44444444,15.842785 9.10865801,16.1785714 8.69444444,16.1785714 C8.31474868,16.1785714 8.00095348,15.8964175 7.95129106,15.530342 L7.94444444,15.4285714 L7.94444444,8.57142857 C7.94444444,8.15721501 8.28023088,7.82142857 8.69444444,7.82142857 Z M11.6944444,7.82142857 C12.0741402,7.82142857 12.3879354,8.10358245 12.4375978,8.46965801 L12.4444444,8.57142857 L12.4444444,15.4285714 C12.4444444,15.842785 12.108658,16.1785714 11.6944444,16.1785714 C11.3147487,16.1785714 11.0009535,15.8964175 10.9512911,15.530342 L10.9444444,15.4285714 L10.9444444,8.57142857 C10.9444444,8.15721501 11.2802309,7.82142857 11.6944444,7.82142857 Z M11.7944444,1.75 L8.59444444,1.75 C7.73113618,1.75 7.02268346,2.41301544 6.95050093,3.25763168 L6.94444444,3.4 L6.944,4 L13.444,4 L13.4444444,3.4 C13.4444444,2.53669173 12.781429,1.82823902 11.9368128,1.75605648 L11.7944444,1.75 Z" id="形状"></path>
                    </g>
                </g>
            </g>
            <g id="切图" transform="translate(50.000000, 301.000000)">
                <g id="编组-2备份-3" transform="translate(0.000000, 132.000000)"></g>
            </g>
        </g>
    </g>
</svg>