<?xml version="1.0" encoding="UTF-8"?>
<svg width="24px" height="24px" viewBox="0 0 24 24" version="1.1" xmlns="http://www.w3.org/2000/svg" xmlns:xlink="http://www.w3.org/1999/xlink">
    <title>icon/设备/手机</title>
    <g id="UIkit" stroke="none" stroke-width="1" fill="none" fill-rule="evenodd">
        <g id="Apple-TV" transform="translate(-84.000000, -609.000000)">
            <g id="icon" transform="translate(50.000000, 301.000000)" fill="#EB4E5C">
                <g id="组件/状态/错误圆" transform="translate(34.000000, 308.000000)">
                    <path d="M12,2 C17.5228475,2 22,6.4771525 22,12 C22,17.5228475 17.5228475,22 12,22 C6.4771525,22 2,17.5228475 2,12 C2,6.4771525 6.4771525,2 12,2 Z M8.44621165,7.39705176 C8.15260016,7.1791973 7.73593648,7.20340335 7.46966991,7.46966991 C7.1767767,7.76256313 7.1767767,8.23743687 7.46966991,8.53033009 L7.46966991,8.53033009 L11.1745423,12.235 L7.21321226,16.1967665 L7.14059411,16.2808849 C6.92273965,16.5744964 6.9469457,16.9911601 7.21321226,17.2574267 C7.50610548,17.5503199 7.98097921,17.5503199 8.27387243,17.2574267 L8.27387243,17.2574267 L12.2355423,13.296 L15.9549513,17.0156115 L16.0390697,17.0882296 C16.3326812,17.3060841 16.7493449,17.281878 17.0156115,17.0156115 C17.3085047,16.7227182 17.3085047,16.2478445 17.0156115,15.9549513 L17.0156115,15.9549513 L13.2955423,12.235 L16.7591538,8.77214531 L16.831772,8.68802688 C17.0496264,8.39441538 17.0254204,7.9777517 16.7591538,7.71148514 C16.4662606,7.41859192 15.9913869,7.41859192 15.6984936,7.71148514 L15.6984936,7.71148514 L12.2345423,11.174 L8.53033009,7.46966991 Z" id="形状结合"></path>
                </g>
            </g>
            <g id="切图" transform="translate(50.000000, 301.000000)">
                <g id="编组-2备份-7" transform="translate(0.000000, 308.000000)"></g>
            </g>
        </g>
    </g>
</svg>