<?xml version="1.0" encoding="UTF-8"?>
<svg width="24px" height="24px" viewBox="0 0 24 24" version="1.1" xmlns="http://www.w3.org/2000/svg" xmlns:xlink="http://www.w3.org/1999/xlink">
    <title>icon/设备/手机</title>
    <g id="UIkit" stroke="none" stroke-width="1" fill="none" fill-rule="evenodd">
        <g id="Apple-TV" transform="translate(-84.000000, -579.000000)">
            <g id="icon" transform="translate(50.000000, 359.000000)" fill="#333333" fill-rule="nonzero">
                <g id="编组-4" transform="translate(0.000000, 218.000000)">
                    <g id="icon/通用/箭头左/双" transform="translate(34.000000, 2.000000)">
                        <path d="M13.6009137,2.87733912 C13.8725839,3.13809008 13.9053283,3.55416983 13.69354,3.85218656 L13.6226619,3.9377763 L6.12100987,11.7530005 L13.6224475,19.5620015 C13.8833106,19.8335641 13.8991402,20.25063 13.6754305,20.5398051 L13.6011369,20.6224476 C13.3295743,20.8833106 12.9125084,20.8991402 12.6233333,20.6754306 L12.5406909,20.601137 L4.54069087,12.2730089 C4.2898196,12.0118479 4.26465586,11.6143959 4.46525025,11.3258928 L4.54047653,11.2340967 L12.5404765,2.89908728 C12.8273026,2.60025005 13.3020765,2.59051307 13.6009137,2.87733912 Z M19.6009137,2.87733912 C19.8725839,3.13809008 19.9053283,3.55416983 19.69354,3.85218656 L19.6226619,3.9377763 L12.1210099,11.7530005 L19.6224475,19.5620015 C19.8833106,19.8335641 19.8991402,20.25063 19.6754305,20.5398051 L19.6011369,20.6224476 C19.3295743,20.8833106 18.9125084,20.8991402 18.6233333,20.6754306 L18.5406909,20.601137 L10.5406909,12.2730089 C10.2898196,12.0118479 10.2646559,11.6143959 10.4652502,11.3258928 L10.5404765,11.2340967 L18.5404765,2.89908728 C18.8273026,2.60025005 19.3020765,2.59051307 19.6009137,2.87733912 Z" id="形状"></path>
                    </g>
                </g>
            </g>
            <g id="切图" transform="translate(50.000000, 359.000000)">
                <g id="编组-2备份-5" transform="translate(0.000000, 220.000000)"></g>
            </g>
        </g>
    </g>
</svg>