<?xml version="1.0" encoding="UTF-8"?>
<svg width="24px" height="24px" viewBox="0 0 24 24" version="1.1" xmlns="http://www.w3.org/2000/svg" xmlns:xlink="http://www.w3.org/1999/xlink">
    <title>icon/设备/手机备份 39</title>
    <g id="UIkit" stroke="none" stroke-width="1" fill="none" fill-rule="evenodd">
        <g id="Apple-TV" transform="translate(-220.000000, -579.000000)">
            <g id="icon" transform="translate(50.000000, 359.000000)" fill="#333333" fill-rule="nonzero">
                <g id="编组-4" transform="translate(0.000000, 218.000000)">
                    <g id="icon/交易备份-27" transform="translate(170.000000, 2.000000)">
                        <path d="M10.5622257,2.87733912 C10.2905555,3.13809008 10.2578111,3.55416983 10.4695994,3.85218656 L10.5404775,3.9377763 L18.0421295,11.7530005 L10.5406919,19.5620015 C10.2798288,19.8335641 10.2639992,20.25063 10.4877089,20.5398051 L10.5620025,20.6224476 C10.833565,20.8833106 11.250631,20.8991402 11.5398061,20.6754306 L11.6224485,20.601137 L19.6224485,12.2730089 C19.8733198,12.0118479 19.8984835,11.6143959 19.6978891,11.3258928 L19.6226629,11.2340967 L11.6226629,2.89908728 C11.3358368,2.60025005 10.8610629,2.59051307 10.5622257,2.87733912 Z M4.56222568,2.87733912 C4.29055547,3.13809008 4.25781108,3.55416983 4.46959942,3.85218656 L4.54047752,3.9377763 L12.0421295,11.7530005 L4.54069186,19.5620015 C4.27982882,19.8335641 4.26399919,20.25063 4.48770886,20.5398051 L4.56200245,20.6224476 C4.83356504,20.8833106 5.25063096,20.8991402 5.53980609,20.6754306 L5.62244852,20.601137 L13.6224485,12.2730089 C13.8733198,12.0118479 13.8984835,11.6143959 13.6978891,11.3258928 L13.6226629,11.2340967 L5.62266286,2.89908728 C5.33583681,2.60025005 4.86106291,2.59051307 4.56222568,2.87733912 Z" id="形状"></path>
                    </g>
                </g>
            </g>
            <g id="切图" transform="translate(50.000000, 359.000000)">
                <g id="编组-2备份-5" transform="translate(0.000000, 220.000000)"></g>
            </g>
        </g>
    </g>
</svg>