<?xml version="1.0" encoding="UTF-8"?>
<svg width="24px" height="24px" viewBox="0 0 24 24" version="1.1" xmlns="http://www.w3.org/2000/svg" xmlns:xlink="http://www.w3.org/1999/xlink">
    <title>icon/设备/手机</title>
    <g id="组件" stroke="none" stroke-width="1" fill="none" fill-rule="evenodd">
        <g id="Apple-TV" transform="translate(-186.000000, -521.000000)">
            <g id="icon" transform="translate(50.000000, 301.000000)" fill="#333333" fill-rule="nonzero">
                <g id="icon/通用/箭头右/单" transform="translate(136.000000, 220.000000)">
                    <path d="M16.6224485,12.2730089 C16.8733198,12.0118479 16.8984835,11.6143959 16.6978891,11.3258928 L16.6226629,11.2340967 L8.62266286,2.89908728 C8.33583681,2.60025005 7.86106291,2.59051307 7.56222568,2.87733912 C7.29055547,3.13809008 7.25781108,3.55416983 7.46959942,3.85218656 L7.54047752,3.9377763 L15.0421295,11.7530005 L7.54069186,19.5620015 C7.27982882,19.8335641 7.26399919,20.25063 7.48770886,20.5398051 L7.56200245,20.6224476 C7.83356504,20.8833106 8.25063096,20.8991402 8.53980609,20.6754306 L8.62244852,20.601137 L16.6224485,12.2730089 Z" id="路径"></path>
                </g>
            </g>
            <g id="切图" transform="translate(50.000000, 301.000000)">
                <g id="编组-2备份-5" transform="translate(0.000000, 220.000000)"></g>
            </g>
        </g>
    </g>
</svg>